<svg width="50" height="50" viewBox="0 0 50 50" fill="none" xmlns="http://www.w3.org/2000/svg">
<path d="M25 4.16663C13.4895 4.16663 4.16663 13.4895 4.16663 25C4.16427 29.3735 5.53916 33.6366 8.09625 37.1847C10.6533 40.7328 14.2628 43.3855 18.4125 44.7666C19.4541 44.9479 19.8437 44.3229 19.8437 43.775C19.8437 43.2812 19.8166 41.6416 19.8166 39.8958C14.5833 40.8604 13.2291 38.6208 12.8125 37.4479C12.577 36.8479 11.5625 35 10.677 34.5041C9.94788 34.1145 8.90621 33.15 10.65 33.125C12.2916 33.0979 13.4625 34.6354 13.8541 35.2604C15.7291 38.4104 18.725 37.525 19.9208 36.9791C20.1041 35.625 20.65 34.7145 21.25 34.1937C16.6145 33.6729 11.7708 31.875 11.7708 23.9062C11.7708 21.6395 12.577 19.7666 13.9062 18.3062C13.6979 17.7854 12.9687 15.65 14.1145 12.7854C14.1145 12.7854 15.8583 12.2395 19.8437 14.9229C21.5397 14.4522 23.292 14.2153 25.052 14.2187C26.8229 14.2187 28.5937 14.452 30.2604 14.9208C34.2437 12.2125 35.9895 12.7875 35.9895 12.7875C37.1354 15.652 36.4062 17.7875 36.1979 18.3083C37.525 19.7666 38.3333 21.6145 38.3333 23.9062C38.3333 31.902 33.4645 33.6729 28.8291 34.1937C29.5833 34.8437 30.2354 36.0937 30.2354 38.0479C30.2354 40.8333 30.2083 43.0729 30.2083 43.777C30.2083 44.3229 30.6 44.9729 31.6416 44.7645C35.7771 43.3683 39.3706 40.7104 41.9164 37.1649C44.4622 33.6194 45.8321 29.3648 45.8333 25C45.8333 13.4895 36.5104 4.16663 25 4.16663Z" fill="white"/>
</svg>
