<svg width="50" height="50" viewBox="0 0 50 50" fill="none" xmlns="http://www.w3.org/2000/svg">
<path d="M15.5063 11.1459C16.8375 11.1459 18.0688 11.25 19.1938 11.5584C20.2147 11.746 21.1891 12.1309 22.0625 12.6917C22.8834 13.2063 23.498 13.9292 23.9063 14.8563C24.3167 15.7834 24.5209 16.9188 24.5209 18.1542C24.5209 19.598 24.2146 20.8334 23.498 21.7605C22.8834 22.6896 21.8584 23.5125 20.6292 24.1313C22.3709 24.648 23.7021 25.575 24.5209 26.8105C25.3417 28.048 25.8542 29.5938 25.8542 31.3459C25.8542 32.7896 25.5459 34.025 25.0334 35.0563C24.5209 36.0875 23.7021 37.0146 22.7792 37.6334C21.7767 38.2966 20.6685 38.7842 19.5021 39.075C18.273 39.3855 17.0438 39.5917 15.8146 39.5917H2.08337V11.1459H15.5063ZM14.6855 22.6875C15.8125 22.6875 16.7355 22.3792 17.4521 21.8646C18.1688 21.35 18.4771 20.4209 18.4771 19.2875C18.4771 18.6688 18.373 18.05 18.1688 17.6396C17.9646 17.2271 17.6563 16.9167 17.248 16.6084C16.8375 16.4021 16.4271 16.1959 15.9146 16.0938C15.4021 15.9896 14.8917 15.9896 14.275 15.9896H8.33337V22.6896H14.6875L14.6855 22.6875ZM14.9938 34.85C15.6084 34.85 16.223 34.7459 16.7355 34.6438C17.2529 34.5454 17.7423 34.3341 18.1688 34.025C18.5863 33.7234 18.9355 33.3373 19.1938 32.8917C19.398 32.3771 19.6042 31.7584 19.6042 31.0375C19.6042 29.5938 19.1938 28.5625 18.375 27.8417C17.5542 27.223 16.4271 26.9146 15.0959 26.9146H8.33337V34.8521H14.9938V34.85ZM34.7688 34.7459C35.5875 35.5709 36.8167 35.9834 38.4563 35.9834C39.5834 35.9834 40.6084 35.675 41.4271 35.1605C42.248 34.5417 42.7605 33.923 42.9646 33.3042H47.9855C47.1646 35.7771 45.9355 37.5292 44.298 38.6625C42.6563 39.6938 40.7105 40.3125 38.3542 40.3125C36.8466 40.3171 35.3518 40.0372 33.948 39.4875C32.6849 39.0137 31.5584 38.235 30.6688 37.2209C29.7173 36.2721 29.014 35.1037 28.6209 33.8188C28.1084 32.4792 27.9021 31.0375 27.9021 29.3875C27.9021 27.8417 28.1084 26.4 28.6209 25.0584C29.1136 23.7669 29.8427 22.5786 30.7709 21.5542C31.6938 20.6271 32.8209 19.8042 34.05 19.2875C35.4182 18.7377 36.8797 18.4575 38.3542 18.4625C40.0959 18.4625 41.6334 18.773 42.9646 19.4938C44.298 20.2146 45.3209 21.0396 46.1417 22.2771C46.979 23.4657 47.6029 24.7911 47.9855 26.1938C48.1896 27.6355 48.2917 29.0792 48.1896 30.7271H33.3334C33.3334 32.3771 33.948 33.923 34.7688 34.748V34.7459ZM41.223 23.925C40.5063 23.2042 39.3792 22.7917 38.0459 22.7917C37.2641 22.78 36.491 22.9565 35.7917 23.3063C35.1771 23.6167 34.7688 24.0292 34.3584 24.4417C33.9812 24.8402 33.7317 25.3422 33.6417 25.8834C33.5375 26.4 33.4355 26.8105 33.4355 27.223H42.6563C42.4521 25.6771 41.9396 24.648 41.223 23.925V23.925ZM32.2063 13.1042H43.6813V15.8875H32.2084V13.1042H32.2063Z" fill="white"/>
</svg>
